<svg width="49" height="50" viewBox="0 0 49 50" fill="none" xmlns="http://www.w3.org/2000/svg">
<path fill-rule="evenodd" clip-rule="evenodd" d="M20.825 29.2649L25.3167 27.2233V8.84828H12.25V21.7108V27.2233L16.7417 29.2649V39.8816C16.7417 40.3324 17.1075 40.6983 17.5583 40.6983H20.0083C20.4591 40.6983 20.825 40.3324 20.825 39.8816V29.2649Z" fill="white"/>
<path fill-rule="evenodd" clip-rule="evenodd" d="M35.9334 18.4012V16.2354H33.4834V18.4012C32.9885 18.9174 32.6667 19.7361 32.6667 20.6606C32.6667 22.2228 32.6667 40.6983 34.7084 40.6983C36.7501 40.6983 36.7501 22.2228 36.7501 20.6606C36.7501 19.7361 36.4283 18.9174 35.9334 18.4012Z" fill="white"/>
<path d="M18.7833 39.065V37.0233" stroke="#849A86" stroke-width="2" stroke-linejoin="round"/>
<path d="M14.7 8.84828V19.0566" stroke="#849A86" stroke-width="2" stroke-linejoin="round"/>
<path d="M16.7418 8.84828V14.9733" stroke="#849A86" stroke-width="2" stroke-linejoin="round"/>
<path d="M18.7833 8.84828V17.8316" stroke="#849A86" stroke-width="2" stroke-linejoin="round"/>
<path d="M20.825 17.015V20.2816" stroke="#849A86" stroke-width="2" stroke-linejoin="round"/>
<path d="M20.825 8.84828V15.7899" stroke="#849A86" stroke-width="2" stroke-linejoin="round"/>
<path d="M22.8668 8.84828V16.1983" stroke="#849A86" stroke-width="2" stroke-linejoin="round"/>
<path d="M35.9333 22.3233H33.8916" stroke="#849A86" stroke-width="2" stroke-linejoin="round"/>
<path fill-rule="evenodd" clip-rule="evenodd" d="M37.1583 13.7483C37.1583 15.1011 36.0611 16.1983 34.7083 16.1983C33.3555 16.1983 32.2583 15.1011 32.2583 13.7483C32.2583 12.3955 34.7083 8.43996 34.7083 8.43996C34.7083 8.43996 37.1583 12.3955 37.1583 13.7483Z" fill="white"/>
<path fill-rule="evenodd" clip-rule="evenodd" d="M37.1583 13.7483C37.1583 15.1011 36.0611 16.1983 34.7083 16.1983C33.3555 16.1983 32.2583 15.1011 32.2583 13.7483C32.2583 12.3955 34.7083 8.43996 34.7083 8.43996C34.7083 8.43996 37.1583 12.3955 37.1583 13.7483Z" stroke="#849A86" stroke-width="1.5" stroke-linejoin="round"/>
<path fill-rule="evenodd" clip-rule="evenodd" d="M32.6667 20.6604C32.6667 19.0981 33.581 17.8315 34.7084 17.8315C35.8358 17.8315 36.7501 19.0981 36.7501 20.6604C36.7501 22.2227 36.7501 40.6982 34.7084 40.6982C32.6667 40.6982 32.6667 22.2227 32.6667 20.6604Z" stroke="#849A86" stroke-width="1.5" stroke-linejoin="round"/>
<path d="M32.6667 23.9566H36.7501" stroke="#849A86" stroke-width="1.5" stroke-linejoin="round"/>
<path d="M33.4832 18.24V15.79" stroke="#849A86" stroke-width="1.5" stroke-linejoin="round"/>
<path d="M35.9334 15.79V18.24" stroke="#849A86" stroke-width="1.5" stroke-linejoin="round"/>
<path fill-rule="evenodd" clip-rule="evenodd" d="M20.825 29.265L25.3167 27.2233V8.8483H12.25V21.7108V27.2233L16.7417 29.265V39.8816C16.7417 40.3324 17.1075 40.6983 17.5583 40.6983H20.0083C20.4591 40.6983 20.825 40.3324 20.825 39.8816V29.265Z" stroke="#849A86" stroke-width="1.5" stroke-linejoin="round"/>
<path d="M25.3167 23.14H12.25" stroke="#849A86" stroke-width="1.5" stroke-linejoin="round"/>
<path d="M25.3167 25.59H12.25" stroke="#849A86" stroke-width="1.5" stroke-linejoin="round"/>
</svg>
