<svg width="52" height="52" viewBox="0 0 52 52" fill="none" xmlns="http://www.w3.org/2000/svg">
<path fill-rule="evenodd" clip-rule="evenodd" d="M37.1884 20.6213L36.1131 19.7288C33.184 17.4891 29.5235 16.1588 25.5514 16.1588C15.9396 16.1588 8.07715 24.6614 8.07715 34.2732H9.86215C9.86215 26.7562 16.0263 19.9519 23.5433 19.9519C26.8528 19.9519 29.886 21.133 32.2452 23.0969L33.5844 24.3736C35.8012 26.7949 37.1539 30.0206 37.2602 34.2732H43.061C42.9552 28.4247 40.729 23.8071 37.1884 20.6213Z" fill="white"/>
<path fill-rule="evenodd" clip-rule="evenodd" d="M28.1584 33.5721C28.1584 36.0367 26.1605 38.0346 23.6959 38.0346C21.2313 38.0346 19.2334 36.0367 19.2334 33.5721C19.2334 31.1075 21.2313 29.1096 23.6959 29.1096C26.1605 29.1096 28.1584 31.1075 28.1584 33.5721Z" fill="white"/>
<path fill-rule="evenodd" clip-rule="evenodd" d="M25.4512 29.4681L40.0928 16.3556L40.7244 16.9867L27.6773 31.5549" fill="white"/>
<path d="M27.2021 36.3983H47.6021" stroke="#849A86" stroke-width="1.5"/>
<path d="M3.82715 36.3983H20.4021" stroke="#849A86" stroke-width="1.5"/>
<path d="M33.5842 24.3737C35.8015 26.7949 37.1538 30.0207 37.2601 34.2732H43.0613C42.9555 28.4248 40.7293 23.8072 37.1882 20.6214" stroke="#849A86" stroke-width="1.5"/>
<path d="M32.2452 23.1236C29.886 21.1601 26.8528 19.979 23.5433 19.979C16.0263 19.979 9.86215 26.7565 9.86215 34.2735H8.07715C8.07715 24.6617 15.9396 16.1859 25.5514 16.1859C29.5231 16.1859 33.184 17.5161 36.1131 19.7555" stroke="#849A86" stroke-width="1.5"/>
<path fill-rule="evenodd" clip-rule="evenodd" d="M28.1584 33.5721C28.1584 36.0367 26.1605 38.0346 23.6959 38.0346C21.2313 38.0346 19.2334 36.0367 19.2334 33.5721C19.2334 31.1075 21.2313 29.1096 23.6959 29.1096C26.1605 29.1096 28.1584 31.1075 28.1584 33.5721Z" stroke="#849A86" stroke-width="1.5"/>
<path d="M25.4512 29.4681L40.0928 16.3556L40.7244 16.9867L27.6773 31.5549" stroke="#849A86" stroke-width="1.5"/>
<path d="M35.3228 27.0656L40.124 24.3881" stroke="#849A86" stroke-width="1.5"/>
<path d="M36.7078 30.4712L42.509 29.0462" stroke="#849A86" stroke-width="1.5"/>
<path d="M20.7236 33.9546C20.7236 32.4781 21.9247 31.2771 23.4016 31.2771C24.8776 31.2771 26.0791 32.4781 26.0791 33.9546C26.0791 35.431 24.8776 36.6321 23.4016 36.6321" stroke="#849A86" stroke-width="2"/>
<path d="M31.6572 14.868C33.0712 15.3321 34.4163 15.9492 35.6735 16.6998" stroke="#849A86" stroke-width="2"/>
<path d="M7.6521 24.5833C11.0245 18.2189 17.7191 13.8733 25.4095 13.8733C26.9429 13.8733 28.4363 14.0463 29.872 14.3731" stroke="#849A86" stroke-width="2"/>
</svg>
