<svg width="16" height="16" viewBox="0 0 16 16" fill="none" xmlns="http://www.w3.org/2000/svg">
<path fill-rule="evenodd" clip-rule="evenodd" d="M7.91541 0.125C3.56658 0.125 0.0404053 3.73906 0.0404053 8.20039C0.0404053 11.7688 2.29744 14.7922 5.42634 15.8609C5.82009 15.9348 5.96423 15.6852 5.96423 15.4707C5.96423 15.2773 5.9572 14.7711 5.95369 14.0961C3.76345 14.5848 3.29939 13.0133 3.29939 13.0133C2.9408 12.0816 2.424 11.832 2.424 11.832C1.71033 11.3293 2.47673 11.3398 2.47673 11.3398C3.26775 11.3961 3.68259 12.173 3.68259 12.173C4.38572 13.407 5.52478 13.052 5.97478 12.8445C6.04509 12.3242 6.249 11.9656 6.474 11.7652C4.72673 11.5613 2.88806 10.8688 2.88806 7.775C2.88806 6.89258 3.19392 6.17188 3.69666 5.60938C3.6158 5.40547 3.34509 4.58281 3.774 3.47188C3.774 3.47188 4.43494 3.25391 5.93962 4.29805C6.56892 4.11875 7.24041 4.03086 7.91189 4.02734C8.57986 4.03086 9.25486 4.11875 9.88416 4.29805C11.3888 3.25391 12.0463 3.47188 12.0463 3.47188C12.4752 4.58281 12.2045 5.40547 12.1236 5.60938C12.6263 6.17539 12.9322 6.89609 12.9322 7.775C12.9322 10.8758 11.09 11.5578 9.33572 11.7582C9.61697 12.0078 9.87009 12.5 9.87009 13.2523C9.87009 14.3316 9.85955 15.2035 9.85955 15.4672C9.85955 15.6816 10.0002 15.9348 10.401 15.8539C13.5369 14.7887 15.7904 11.7652 15.7904 8.20039C15.7904 3.73906 12.2642 0.125 7.91541 0.125Z" fill="white"/>
</svg>
