<svg width="50" height="50" viewBox="0 0 50 50" fill="none" xmlns="http://www.w3.org/2000/svg">
<path fill-rule="evenodd" clip-rule="evenodd" d="M31.5728 26.4049L40.8583 35.7325C42.0613 36.9399 42.0319 38.9203 40.7938 40.1584C39.5537 41.3985 37.5704 41.4259 36.363 40.2192L27.1975 31.0575" fill="white"/>
<path fill-rule="evenodd" clip-rule="evenodd" d="M33.1667 20.69C33.1667 27.4556 27.682 32.94 20.9167 32.94C14.1515 32.94 8.66675 27.4556 8.66675 20.69C8.66675 13.9243 14.1515 8.43996 20.9167 8.43996C27.682 8.43996 33.1667 13.9243 33.1667 20.69Z" fill="white"/>
<path d="M9.47103 16.0717C8.88752 17.5008 8.56616 19.0647 8.56616 20.7038C8.56616 27.4768 14.0566 32.9673 20.83 32.9673C27.6031 32.9673 33.0939 27.4768 33.0939 20.7038C33.0939 13.9308 27.6031 8.43991 20.83 8.43991C18.3751 8.43991 16.0885 9.16144 14.1709 10.4036" stroke="#849A86" stroke-width="1.5"/>
<path d="M12.8285 11.4096C11.7534 12.3357 10.8412 13.4455 10.1396 14.6897" stroke="#849A86" stroke-width="1.5"/>
<path d="M31.5728 26.4049L40.8583 35.7325C42.0613 36.9399 42.0319 38.9203 40.7938 40.1584C39.5537 41.3985 37.5704 41.4259 36.363 40.2192L27.1975 31.0575" stroke="#849A86" stroke-width="1.5"/>
<path d="M28.9698 26.4058C27.2911 28.799 24.5769 30.4324 21.4323 30.6231C15.9537 30.9559 11.2432 26.7843 10.9104 21.3057C10.578 15.8275 14.7496 11.117 20.2278 10.7842C25.7064 10.4514 30.4169 14.6233 30.7493 20.1015C30.8326 21.4711 30.6341 22.7929 30.2042 24.0101" stroke="#849A86" stroke-width="2"/>
<path d="M38.4488 34.6151L35.2957 37.8826" stroke="#849A86" stroke-width="2"/>
<path d="M36.7288 32.8954L33.5757 36.1629" stroke="#849A86" stroke-width="2"/>
</svg>
